<svg height="512pt" viewBox="-87 0 512 512.00076" width="512pt" xmlns="http://www.w3.org/2000/svg"><g fill="#644c4c"><path d="m224.601562 274.6875c-.035156-.042969-.054687-.0625-.054687-.0625-5.425781-2.527344-9.519531-8.417969-10.90625-15.730469-1.238281-6.527343-.390625-13.207031.429687-19.667969v-2.328124l1.96875-1.164063c11.792969-6.957031 22.019532-16.078125 29.566407-26.378906l8.046875-10.976563-.828125 13.585938c-1.320313 21.644531-6.21875 39.054687-14.980469 53.222656-1.9375 3.140625-4.210938 6.296875-6.949219 9.640625l-3.234375 3.949219zm0 0"/><path d="m208.476562 147.890625c-12.035156-.230469-24.238281-4.785156-34.355468-12.828125-10.519532-8.347656-18.886719-20.371094-24.183594-34.773438-5.398438 8.121094-7.03125 18.710938-4.425781 28.324219l1.59375 5.875-6.023438-.871093c-18.234375-2.625-32.59375-14.394532-37.527343-30.742188-.019532-.046875-.621094-1.546875-.621094-1.546875l.511718-1.425781c.472657-1.324219.878907-2.402344 1.273438-3.386719 4.5625-11.386719 12.0625-21.878906 21.691406-30.339844 14.191406-12.480469 30.214844-19.355469 45.121094-19.355469 5.21875 0 10.238281.84375 14.921875 2.511719 19.863281 7.070313 37.519531 23.703125 48.449219 45.632813 3.964844 7.960937 7.148437 16.535156 9.722656 26.203125l.878906 3.296875-3.113281 1.386718c-2.914063 1.300782-6.195313 1.988282-9.488281 1.988282-4.773438 0-9.484375-1.4375-13.269532-4.046875-1.664062-1.152344-4.441406-3.070313-6.675781-3.070313-.8125 0-1.480469.257813-2.167969.835938-1.585937 1.335937-1.570312 3.734375-1.375 5.675781.507813 5.28125 1.507813 10.503906 2.976563 15.535156l1.523437 5.222657zm0 0"/><path d="m116.035156 275.777344c-5.917968-5.152344-10.414062-10.324219-13.742187-15.8125-6.457031-10.617188-9.6875-24.464844-9.59375-41.15625.011719-1.742188.058593-3.585938.144531-5.488282l.527344-11.703124 6.742187 9.582031c7.328125 10.414062 17.203125 19.375 28.554688 25.914062l1.640625.945313.335937 2.027344v.015624s0-.003906-.003906-.011718c3.46875 12.316406-.105469 26.238281-9.117187 35.464844l-2.640626 2.703124zm0 0"/></g><path d="m256.636719 507.808594-.191407-3.789063c-1.804687-36.042969-.011718-72.363281 5.332032-107.953125-5.378906 35.425782-7.179688 71.609375-5.410156 107.535156l.207031 4.207032-179.796875-.429688.328125-4.292968c2.644531-34.765626 2.570312-70-.210938-104.726563 2.738281 34.882813 2.796875 70.316406.105469 105.316406l-.285156 3.703125-49.53125-.121094c-6.886719-.019531-13.4375-.386718-17.964844-4.558593-5.734375-5.292969-5.472656-14.132813-4.78125-22l6.289062-71.03125c1.929688-21.855469 3.925782-44.453125 13.269532-64.851563 12.335937-26.945312 33.492187-38.53125 49.175781-40.386718-.003906 0-.003906 0-.007813 0-.019531 0 .011719-.015626.042969-.027344l2.261719-.824219 1.789062 1.609375c1.03125.925781 2.03125 1.734375 3.058594 2.46875 4.867188 3.453125 10.617188 5.503906 16.179688 7.488281 2.664062.945313 5.023437 1.796875 7.417968 2.789063 9.976563 4.15625 16.238282 10.058594 18.113282 17.0625-1.824219-7.046875-8.101563-12.957032-18.089844-17.113282-2.34375-.980468-4.78125-1.851562-7.136719-2.691406l-.234375-.085937c-5.5625-1.980469-11.320312-4.03125-16.222656-7.515625-8.871094-6.300782-14.980469-17.757813-16.765625-31.433594-1.371094-10.421875-.378906-21.09375.582031-31.417969l.082032-.878906c.132812-1.433594.261718-2.855469.386718-4.285156 1.476563-16.988281 1.949219-34.308594 2.40625-51.0625.976563-36.179688 1.988282-73.59375 13.085938-108.523438 7.914062-24.941406 19.835937-43.863281 35.4375-56.230469 16.234375-12.886718 37.601562-19.699218 61.785156-19.699218 3.632812 0 7.347656.160156 11.046875.476562 19.355469 1.660156 36.839844 7.414063 50.574219 16.644532 15.675781 10.515624 26.875 26.050781 30.722656 42.625 3.054688 13.136718 1.753906 26.304687.371094 40.242187-1.277344 12.75-2.589844 25.878906-.082032 38.503906 1.6875 8.472657 5.070313 16.597657 8.339844 24.453125 4.085938 9.816406 7.949219 19.09375 9.0625 29.363282 1.449219 13.261718-1.941406 25.902343-5.527344 39.289062l-.035156.128906c-3.117187 11.609375-6.332031 23.589844-5.90625 35.632813.117188 3.269531.496094 6.574219.867188 9.773437.800781 6.925782 1.558594 13.460938.007812 20-2.871094 12.171875-12.824218 19.804688-18.496094 23.273438-8.730468 5.335937-18.683593 8.25-28.308593 11.070312 9.621093-2.75 19.589843-5.675781 28.335937-11.019531 5.375-3.277344 9.765625-7.21875 13.058594-11.71875l2.152344-2.941406 3.332031 1.992187.023437.019532c26.578126 14.046874 46.152344 42.523437 53.8125 78.234374 6.972657 32.53125 3.816407 66.210938-.011718 97.917969-.746094 6.152344-1.757813 11.984375-5.910156 15.738281-4.269532 3.863282-10.570313 4.183594-16.140626 4.183594zm-120.027344-92.671875 14.402344-3.414063-1.746094.355469-5.328125 1.289063h.003906zm64.511719-6.261719c3.898437 0 7.714844.683594 11.347656 2.023438-2.03125-.816407-4.234375-1.375-6.519531-1.710938l-3.339844-.492188-.078125-3.375c-.644531-28.332031 2.332031-56.667968 8.859375-84.210937-6.550781 27.398437-9.53125 55.574219-8.917969 83.722656l.082032 3.816407-3.804688.261718c-.511719.039063-1.015625.082032-1.523438.144532 1.289063-.101563 2.597657-.179688 3.894532-.179688zm-56.960938 1.4375.171875-2.410156c2.070313-28.941406-.140625-57.957032-6.582031-86.246094l-.023438-4.019531v4s0 0-.007812 0c6.558594 28.949219 8.726562 58.621093 6.410156 88.21875zm33.589844-95.011719c3.628906 0 6.90625-2.234375 9.542969-4.03125 17.980469-12.285156 38.324219-26.183593 50.605469-46.054687 16.144531-26.109375 16.527343-58.542969 14.542968-89.699219-1.734375-27.113281-5.050781-55.640625-17.480468-80.582031-10.933594-21.9375-28.609376-38.582032-48.492188-45.667969-4.671875-1.660156-9.683594-2.503906-14.898438-2.503906-14.957031 0-31.011718 6.875-45.207031 19.359375-9.640625 8.484375-17.144531 18.988281-21.699219 30.375-7.367187 18.378906-7.730468 38.675781-8.085937 58.304687-.113281 6.625-.242187 14.140625-.707031 21.324219-.339844 5.40625-.890625 10.898438-1.417969 16.210938l-.1875 1.902343c-.15625 1.535157-.308594 3.078125-.453125 4.628907l-.054688.617187-.242187.570313.140625.617187-.0625.613281c-.632812 7.066406-.929688 12.472656-.953125 17.523438-.097656 16.703125 3.128906 30.558594 9.585937 41.183594 8.53125 14.027343 23.023438 23.414062 35.808594 31.699218l31.019532 20.101563c2.304687 1.492187 5.164062 3.351562 8.296874 3.496093.09375.003907.398438.011719.398438.011719zm0 0" fill="#3a6082"/><path d="m170.617188 248.839844c-31.332032-.417969-62.007813-19.476563-76.34375-47.425782l-.53125-1.035156.105468-1.160156c.210938-2.257812.433594-4.515625.652344-6.75.542969-5.402344 1.09375-10.910156 1.4375-16.339844.433594-6.847656.574219-13.710937.703125-21.324218.265625-14.621094.515625-28.425782 3.28125-41.957032l2.109375-10.324218 5.273438 9.125c7.859374 13.613281 23.300781 22.253906 40.296874 22.550781-3.628906-7.695313-4.269531-16.867188-1.726562-25.207031l2.988281-9.800782 4.441407 9.234375c5.1875 10.785157 12.371093 20.015625 20.773437 26.691407 10.441406 8.28125 23 12.84375 35.351563 12.84375 1.53125 0 3.078124-.074219 4.59375-.222657-2.339844-6.636719-3.882813-13.523437-4.554688-20.503906-.117188-1.210937-.113281-2.179687.007812-2.964844l.6875-4.523437 4.386719 1.285156c1.40625.410156 3.039063 1.425781 5.066407 2.828125 3.742187 2.582031 8.457031 4.003906 13.273437 4.003906 2.921875 0 5.734375-.503906 8.367187-1.503906l4.339844-1.644531.988282 4.535156c3.535156 16.214844 4.90625 32.488281 5.785156 46.265625.503906 7.957031.761718 14.523437.816406 20.671875l.015625 1.714844s-1.28125 1.238281-1.300781 1.261718c-14.84375 28.339844-49.429688 49.679688-80.503906 49.679688zm0 0" fill="#ffdac4"/><path d="m177.421875 315.226562c-3.15625-.125-6.03125-1.992187-8.339844-3.492187l-31.015625-20.097656c-4.554687-2.949219-10.226562-6.617188-15.507812-10.589844l-3.5625-2.675781 3.046875-3.253906c7.269531-7.765626 10.898437-18.796876 9.710937-29.515626l-.761718-6.902343 6.351562 2.800781c10.804688 4.757812 21.992188 7.25 33.261719 7.398438.3125.011718.558593.011718.796875.011718h.089844c11.609374 0 24.140624-3.027344 36.238281-8.753906l6.4375-3.050781-.75 7.085937c-.4375 4.136719-.8125 9.550782.164062 14.726563 1.367188 7.191406 5.382813 13.050781 10.746094 15.667969l4.917969 2.402343-3.785156 3.957031c-11.574219 12.089844-25.707032 21.738282-38.175782 30.25-3.230468 2.207032-6.183594 4.039063-9.554687 4.039063-.101563 0-.207031-.003906-.308594-.007813zm0 0" fill="#ffdac4"/><path d="m241.296875 267.320312c16.730469-27.0625 17.160156-60.238281 15.132813-92.0625-1.753907-27.523437-5.136719-56.523437-17.890626-82.105468-11.390624-22.851563-29.878906-40.21875-50.722656-47.652344-19.632812-6.996094-43.59375-.410156-64.089844 17.621094-10.105468 8.890625-17.980468 19.914062-22.777343 31.886718-7.628907 19.042969-8.003907 39.722657-8.363281 59.722657-.128907 6.96875-.257813 14.175781-.699219 21.136719-.34375 5.382812-.890625 10.878906-1.421875 16.195312-.214844 2.128906-.429688 4.277344-.632813 6.4375-.316406.757812-.40625 1.601562-.21875 2.429688-.527343 5.898437-.9375 11.878906-.972656 17.855468-.097656 17.449219 3.324219 32.011719 10.175781 43.285156 8.992188 14.800782 23.894532 24.457032 37.042969 32.976563l31.019531 20.101563c2.585938 1.675781 6.132813 3.972656 10.375 4.136718.167969.003906.335938.007813.5.007813 4.875 0 8.878906-2.734375 11.828125-4.75 18.277344-12.480469 38.988281-26.628907 51.714844-47.222657zm-6.855469-4.238281c-1.996094 3.222657-4.234375 6.28125-6.640625 9.210938-.386719-.519531-.890625-.96875-1.519531-1.261719-4.304688-2.011719-7.558594-6.824219-8.707031-12.875-1.128907-5.964844-.304688-12.386719.492187-18.59375.015625-.128906.007813-.25.011719-.378906 11.996094-7.085938 22.742187-16.535156 30.75-27.460938-1.113281 18.375-4.941406 36.074219-14.386719 51.359375zm-105.390625-193.90625c13.609375-11.96875 28.707031-18.359375 42.484375-18.359375 4.71875 0 9.28125.75 13.574219 2.28125 18.898437 6.734375 35.746094 22.644532 46.214844 43.652344 4.050781 8.125 7.09375 16.671875 9.433593 25.445312-6.003906 2.679688-13.417968 2.054688-18.851562-1.695312-3.085938-2.128906-8.832031-6.09375-13.699219-2-3.378906 2.847656-2.941406 7.40625-2.777343 9.125.53125 5.503906 1.574218 10.953125 3.117187 16.261719-11.066406-.207031-22.460937-4.433594-31.9375-11.957031-9.953125-7.90625-17.878906-19.324219-22.917969-33.023438-.527344-1.429688-1.8125-2.441406-3.324218-2.613281-1.511719-.171875-2.992188.515625-3.828126 1.789062-6.042968 9.1875-7.757812 20.996094-4.886718 31.574219-16.464844-2.367188-29.875-13.140625-34.316406-28.121094-.03125-.101562-.082032-.191406-.121094-.289062.382812-1.085938.789062-2.167969 1.21875-3.242188 4.328125-10.800781 11.457031-20.769531 20.617187-28.828125zm-29.117187 107.203125c.453125-7.144531.585937-14.445312.710937-21.507812.261719-14.339844.523438-28.109375 3.191407-41.226563 8.496093 14.703125 24.917968 24.226563 43.695312 24.558594 1.425781.035156 2.707031-.675781 3.464844-1.851563.753906-1.175781.847656-2.65625.246094-3.917968-3.289063-6.882813-3.757813-14.992188-1.539063-22.269532 5.464844 11.363282 12.929687 20.960938 21.894531 28.078126 11.140625 8.847656 24.683594 13.714843 37.832032 13.714843 1.667968 0 3.332031-.082031 4.980468-.238281 1.238282-.117188 2.351563-.804688 3.019532-1.851562.667968-1.050782.8125-2.351563.390624-3.523438-2.253906-6.285156-3.722656-12.84375-4.363281-19.492188-.097656-1.054687-.070312-1.652343-.019531-1.980468 1.054688.308594 3 1.652344 3.902344 2.273437 7.285156 5.023438 17.09375 6.082031 25.347656 2.957031 3.277344 15.042969 4.734375 30.570313 5.695312 45.667969.433594 6.785157.75 13.628907.816407 20.445313-.316407.300781-.601563.644531-.816407 1.050781-14.363281 27.515625-47.765624 47.917969-77.71875 47.570313-30.054687-.394532-59.125-18.523438-72.835937-45.246094.210937-2.257813.4375-4.503906.65625-6.730469.539063-5.382813 1.097656-10.953125 1.449219-16.480469zm5.773437 81.503906c-6.0625-9.976562-9.09375-23.117187-9.003906-39.050781.007813-1.773437.0625-3.550781.132813-5.335937 7.78125 11.066406 18.09375 20.328125 29.839843 27.085937.027344.175781.042969.351563.09375.527344 3.121094 10.996094-.144531 23.492187-8.113281 31.652344-5.011719-4.371094-9.53125-9.253907-12.949219-14.878907zm79.328125 50.007813c-2.75 1.878906-5.199218 3.421875-7.46875 3.339844-2.03125-.078125-4.300781-1.550781-6.300781-2.847657l-31.019531-20.101562c-4.996094-3.234375-10.25-6.652344-15.28125-10.429688 8.09375-8.640624 12.066406-20.9375 10.761718-32.6875 10.960938 4.832032 22.820313 7.578126 34.828126 7.738282.316406.003906.625.003906.941406.003906 12.589844 0 25.699218-3.335938 37.941406-9.132812-.539062 5.101562-.796875 10.535156.214844 15.882812 1.605468 8.460938 6.425781 15.351562 12.917968 18.527344-11.164062 11.667968-24.941406 21.101562-37.535156 29.707031zm0 0"/><path d="m150.054688 407.773438-1.734376.417968c2.101563-29.332031-.132812-58.730468-6.671874-87.417968-.496094-2.171876-2.65625-3.535157-4.828126-3.035157-2.167968.496094-3.527343 2.65625-3.035156 4.824219 6.515625 28.585938 8.652344 57.898438 6.347656 87.121094-.011718.164062.003907.320312.011719.484375l-4.472656 1.078125c-2.164063.523437-3.492187 2.703125-2.96875 4.867187.445313 1.84375 2.09375 3.085938 3.914063 3.085938.3125 0 .632812-.039063.949218-.117188l14.382813-3.472656c2.164062-.523437 3.496093-2.699219 2.972656-4.867187-.523437-2.160157-2.703125-3.488282-4.867187-2.96875zm0 0"/><path d="m213.878906 407.089844c-2.375-.875-4.839844-1.488282-7.34375-1.859375-.640625-27.976563 2.296875-55.96875 8.75-83.203125.511719-2.164063-.828125-4.335938-2.996094-4.851563-2.167968-.515625-4.335937.828125-4.851562 2.996094-6.570312 27.742187-9.582031 56.25-8.96875 84.75-.574219.042969-1.152344.085937-1.722656.15625-2.210938.265625-3.785156 2.273437-3.519532 4.484375.265626 2.210938 2.273438 3.789062 4.484376 3.519531 4.496093-.542969 9.121093 0 13.371093 1.574219.460938.167969.933594.25 1.398438.25 1.640625 0 3.179687-1.007812 3.78125-2.632812.773437-2.089844-.292969-4.410157-2.382813-5.183594zm0 0"/><path d="m334.664062 389.25c-7.925781-36.976562-28.332031-66.5-56.003906-81.039062.886719-1.980469 1.589844-4.011719 2.082032-6.082032 1.707031-7.234375.875-14.441406.070312-21.40625-.375-3.269531-.734375-6.359375-.84375-9.445312-.40625-11.441406 2.59375-22.609375 5.769531-34.433594 3.542969-13.203125 7.210938-26.855469 5.679688-40.914062-1.175781-10.824219-5.332031-20.820313-9.351563-30.488282-3.34375-8.042968-6.503906-15.636718-8.101562-23.683594-2.390625-12.015624-1.167969-24.277343.125-37.261718 1.363281-13.667969 2.769531-27.804688-.441406-41.613282-4.078126-17.554687-15.898438-33.988281-32.417969-45.082031-14.316407-9.609375-32.46875-15.597656-52.492188-17.308593-29.332031-2.507813-56.21875 4.621093-75.710937 20.078124-16.234375 12.878907-28.613282 32.457032-36.785156 58.191407-11.253907 35.457031-12.28125 73.167969-13.273438 109.636719-.453125 16.730468-.925781 34.03125-2.382812 50.824218-.148438 1.710938-.308594 3.421875-.46875 5.136719-.980469 10.554687-1.992188 21.464844-.574219 32.328125 1.234375 9.453125 4.296875 17.773438 8.875 24.402344-19.773438 4.070312-37.933594 19.808594-48.109375 42.03125-9.632813 21.027344-11.753906 45.019531-13.628906 66.1875l-6.289063 71.03125c-.5625 6.378906-1.613281 18.246094 6.070313 25.339844 5.605468 5.175781 13.304687 5.625 20.710937 5.640624l280.675781.679688h.871094c5.484375 0 13.261719-.238281 18.777344-5.226562 5.195312-4.695313 6.417968-11.601563 7.21875-18.269532 3.867187-32.0625 7.050781-66.132812-.050782-99.253906zm-7.953124 98.285156c-.648438 5.371094-1.488282 10.425782-4.621094 13.257813-3.238282 2.925781-8.589844 3.171875-14.222656 3.144531l-47.425782-.117188c-1.785156-35.742187-.015625-71.78125 5.289063-107.164062.332031-2.203125-1.1875-4.257812-3.390625-4.585938-2.207032-.335937-4.253906 1.1875-4.582032 3.386719-5.363281 35.777344-7.167968 72.203125-5.390624 108.34375l-171.273438-.414062c2.65625-34.980469 2.59375-70.398438-.214844-105.351563-.179687-2.21875-2.125-3.871094-4.34375-3.695312-2.21875.179687-3.871094 2.121094-3.695312 4.34375 2.789062 34.726562 2.839844 69.929687.167968 104.683594l-45.816406-.109376c-6.0625-.015624-11.789062-.292968-15.265625-3.503906-4.402343-4.066406-4.117187-11.785156-3.503906-18.703125l6.289063-71.035156c1.90625-21.519531 3.875-43.773437 12.925781-63.539063 11.644531-25.4375 31.402343-36.347656 46.007812-38.082031.332031-.039062.640625-.125.9375-.238281 1.089844.984375 2.226563 1.90625 3.410157 2.75 5.339843 3.792969 11.375 5.945312 17.214843 8.027344 2.496094.890625 4.855469 1.730468 7.167969 2.695312 6.125 2.546875 13.835938 7.113282 15.789062 14.394532.578126 2.148437 2.785157 3.429687 4.9375 2.847656 2.152344-.574219 3.425782-2.785156 2.851563-4.9375-2.21875-8.269532-9.300781-15.097656-20.480469-19.75-2.507812-1.042969-5.078125-1.960938-7.558594-2.847656-5.566406-1.980469-10.824218-3.855469-15.25-7.003907-7.972656-5.664062-13.488281-16.125-15.128906-28.691406-1.300781-9.96875-.332031-20.425781.609375-30.539063.160157-1.730468.320313-3.457031.46875-5.1875 1.480469-17.03125 1.953125-34.453124 2.414063-51.296874.976562-35.910157 1.988281-73.042969 12.898437-107.417969 7.679688-24.179688 19.152344-42.453125 34.109375-54.3125 17.875-14.175781 42.738282-20.691407 70.011719-18.363281 18.667969 1.59375 35.503906 7.117187 48.6875 15.96875 14.84375 9.96875 25.4375 24.625 29.0625 40.210937 2.90625 12.511719 1.625 25.375.269531 38.992187-1.292968 12.996094-2.632812 26.4375-.011718 39.632813 1.757812 8.832031 5.21875 17.15625 8.566406 25.207031 3.976562 9.5625 7.730468 18.59375 8.78125 28.261719 1.367187 12.558594-1.945313 24.894531-5.453125 37.953125-3.191407 11.878906-6.488281 24.160156-6.039063 36.8125.121094 3.40625.515625 6.800781.894532 10.082031.757812 6.566407 1.472656 12.765625.089843 18.625-2.542969 10.761719-11.550781 17.636719-16.691406 20.777344-8.289063 5.066406-18 7.910156-27.390625 10.664063-2.140625.625-3.363281 2.863281-2.738281 5 .515625 1.757812 2.125 2.898437 3.867187 2.898437.375 0 .757813-.050781 1.136719-.160156 9.894531-2.902344 20.125-5.898438 29.328125-11.519531 5.847656-3.574219 10.644531-7.925782 14.191406-12.773438.058594.035156.105469.078125.167969.109375 25.621094 13.394531 44.578125 40.976563 52.015625 75.671875 6.839844 31.910156 3.714844 65.21875-.070312 96.597656zm0 0"/></svg>