<svg height="512pt" viewBox="-87 0 512 512.00087" width="512pt" xmlns="http://www.w3.org/2000/svg"><path d="m211.230469 507.472656-46.390625-.230468.003906-4.183594c-2.371094-44.941406-2.171875-90.578125.585938-135.652344l.09375-1.507812 1.066406-1.070313c5.953125-9.089844 11.789062-18.644531 17.378906-28.421875l1.898438-3.316406 9.71875 4.980468c.960937.492188 2.398437 1.222657 3.824218 1.222657.425782 0 .824219-.070313 1.21875-.210938 2.117188-.769531 2.808594-3.421875 3.140625-5.351562 1.84375-10.535157 1.664063-21.683594-.515625-32.25l-.269531-1.316407.574219-1.214843c2.527344-5.296875 5.117187-10.976563 7.699218-16.878907l7.664063 1.582032c.351563 72.933594-.96875 146.417968-3.925781 218.414062l1.988281 5.40625zm0 0" fill="#939baa"/><path d="m120.152344 507.023438-.324219-3.628907c-6.328125-70.921875-7.75-143.035156-4.230469-214.332031l7.703125-1.292969c1.867188 4.632813 3.832031 9.21875 5.847657 13.628907l.433593.941406-.082031 1.03125c-.039062 9.292968.183594 18.554687.667969 27.585937.367187 7.082031 3.128906 7.941407 4.035156 8.226563.449219.136718.894531.207031 1.347656.207031 1.40625 0 2.886719-.609375 4.15625-1.207031 1.121094-.539063 2.261719-1.125 3.46875-1.785156l3.347657-1.824219 1.984374 3.253906c4.953126 8.117187 10.476563 16.433594 16.414063 24.710937l1.21875 1.695313s-.703125 1.980469-.703125 1.980469c-.007812 0-.003906-.035156 0-.070313-2.828125 45.488281-3.050781 91.527344-.660156 136.867188l.222656 4.226562zm0 0" fill="#939baa"/><path d="m176.597656 310.632812c-1.242187-1.414062-2.832031-2.378906-4.730468-2.871093l-1.453126-.375-.789062-1.152344c-.046875-.070313-.097656-.140625-.152344-.214844l-2.230468-3.378906 3.398437-2.191406c.898437-.578125 1.6875-1.277344 2.382813-1.898438l36.953124-33.222656 6.378907 4.484375c-3.429688 8.402344-7.183594 16.984375-11.160157 25.5l-.851562 1.820312s-2.039062.421876-2.074219.429688c-7.300781 3.539062-14.015625 8.039062-20 13.40625l-3.007812 2.695312zm0 0" fill="#fff"/><path d="m153.585938 312.050781c-6.441407-4.667969-13.507813-8.292969-21.003907-10.785156-.433593-.140625-.839843-.226563-1.25-.253906l-2.394531-.175781-.972656-2.191407c-3.972656-8.941406-7.589844-18.199219-10.75-27.507812l-.601563-1.769531.96875-1.59375c0-.007813.046875-.085938.089844-.160157l2.453125-4.035156 40.675781 35.058594c.617188.519531 1.316407 1.109375 2.089844 1.636719l3.746094 2.546874-7.261719 8.261719-.25.230469c-.152344.136719-.300781.269531-.445312.40625l-2.410157 2.277344zm0 0" fill="#fff"/><path d="m163.144531 359.941406c-5.109375-7.226562-10.023437-14.703125-14.609375-22.230468l-1.949218-3.199219 3.066406-2.152344c1.214844-.855469 2.40625-1.753906 3.539062-2.671875l2.417969-1.964844 2.496094 1.863282c1.265625.945312 2.699219 1.640624 4.261719 2.066406 1.160156.308594 2.375.46875 3.613281.46875 2.960937 0 5.859375-.914063 8.160156-2.574219l1.984375-1.429687 9.679688 4.953124-2.082032 3.636719c-4.523437 7.910157-9.214844 15.675781-13.941406 23.078125l-3.199219 5.011719zm0 0" fill="#d8deec"/><path d="m198.148438 339.0625c-.652344-.167969-1.429688-.488281-2.523438-1.042969l-19.132812-9.785156 1.726562-3.53125c1.070312-2.1875 1.503906-4.585937 1.25-6.941406l-.019531-.164063c-.058594-.453125-.125-.847656-.195313-1.234375l-.363281-2.109375 1.546875-1.5c5.207031-4.945312 10.972656-9.207031 17.136719-12.667968l4.847656-2.726563 1.039063 5.46875c1.921874 10.125 2.007812 20.808594.25 30.894531-.253907 1.460938-.601563 2.578125-1.0625 3.410156l-1.5 2.710938zm0 0" fill="#d34242"/><path d="m166.03125 332.074219c-1.234375 0-2.460938-.164063-3.640625-.480469-3.339844-.914062-5.96875-2.964844-7.226563-5.636719-1.160156-2.433593-1.203124-5.476562-.113281-8.558593.335938-.9375.769531-1.832032 1.289063-2.675782l.171875-.277344 2.949219-3.363281.265624-.214843c2.675782-2.175782 6.039063-3.425782 9.226563-3.425782.574219 0 1.144531.039063 1.695313.121094 4.828124.707031 8 4.324219 8.71875 9.933594l.023437.136718.015625.136719c.472656 4.269531-1.367188 8.628907-4.808594 11.378907-2.386718 1.886718-5.425781 2.925781-8.566406 2.925781zm0 0" fill="#d34242"/><path d="m135.570312 339.324219c-.234374 0-.464843-.015625-.691406-.046875-1.792968-.230469-4.308594-1.75-4.652344-8.316406-.429687-8.253907-.652343-16.679688-.664062-25.046876l-.007812-5.742187 5.390624 1.984375c6.691407 2.464844 13.03125 5.867188 18.847657 10.113281l2.480469 1.8125-1.300782 3.351563c-.9375 2.664062-1.027344 5.285156-.257812 7.574218l.875 2.613282-2.128906 1.75c-4.246094 3.484375-8.886719 6.433594-13.796876 8.753906-1.757812.839844-2.984374 1.199219-4.09375 1.199219zm0 0" fill="#d34242"/><g fill="#5b5d6d"><path d="m288.847656 507.851562.230469-4.199218c1.984375-36.15625.855469-72.757813-3.351563-108.785156 4.164063 36.125 5.28125 72.859374 3.269532 109.1875l-.210938 3.796874-75.761718-.378906 2.011718-5.371094c.011719-.039062.027344-.074218.035156-.113281.414063-10.316406.773438-19.78125 1.09375-28.855469l.082032-2.378906 2.128906-1.0625.089844-.089844c11.339844-13.363281 24.191406-28.515624 30.539062-46.210937 6.988282-19.511719 4.195313-40.203125-7.121094-52.714844-2.839843-3.109375-3.746093-4.6875-3.722656-6.484375l.011719-.917968.410156-.820313c.601563-1.207031 1.652344-1.949219 3.179688-2.945313l.40625-.25c10.824219-7.0625 17.671875-19.46875 17.878906-32.390624.082031-5.148438-.664063-10.179688-2.222656-14.941407l-3.851563-11.800781 10.015625 7.328125c.789063.578125 1.566407 1.152344 2.355469 1.738281 18.84375 13.855469 38.332031 28.1875 49.753906 48.585938 10.777344 19.273437 13.207032 41.796875 14.769532 63.214844 1.417968 19.476562 2.257812 39.195312 2.5 58.621093.101562 8.351563-.316407 17.730469-6.589844 23.316407-5.1875 4.621093-12.71875 5.007812-19.367188 5.007812zm0 0"/><path d="m216.554688 460.691406c1.980468-61.550781 2.785156-123.660156 2.386718-184.59375l-.074218-11.492187 7.191406 8.960937c4.664062 5.808594 10.28125 11.550782 17.179687 17.558594l.9375.816406.3125 1.207032c9.777344 6.832031 15.722657 19.746093 15.503907 33.714843-.210938 12.742188-7.246094 25.441407-17.914063 32.363281l-.25.164063c-1.425781.925781-2.871094 1.867187-3.449219 3.386719-1.019531 2.667968.960938 5.171875 3.453125 7.933594 11.308594 12.5 14.097657 33.164062 7.113281 52.648437-5.652343 15.753906-16.035156 28.921875-25.324218 40.027344l-7.441406 8.894531zm0 0"/><path d="m50.636719 506.683594.003906-.011719h-1.738281l-19.230469-.089844c-8.890625-.046875-18.574219-1.039062-22.992187-8.035156-2.421876-3.835937-2.621094-8.4375-2.621094-13.625 0-29.839844 1.683594-59.980469 4.996094-89.585937 1.996093-17.785157 4.789062-36.421876 14.90625-51.609376 9.269531-13.941406 23.550781-23.28125 37.609374-31.300781 2.585938-1.480469 5.210938-2.941406 7.835938-4.398437l3.667969-2.039063 12.265625-6.835937-6.824219 12.273437c-4.265625 7.671875-5.113281 16.148438-2.269531 22.679688 2.414062 5.546875 7.113281 9.867187 15.230468 14.011719l5.671876 2.894531-5.066407 3.855469c-4.738281 3.601562-8.417969 9.414062-10.640625 16.808593-5.875 19.488281-.707031 38.929688 4.660156 51.808594 6.824219 16.359375 17.34375 30.949219 27.511719 45.058594l.082031.113281 3.359376.332031.265624 3.359375c.71875 10.414063 1.519532 20.609375 2.382813 30.300782l.390625 4.375zm2.046875-5.371094.011718-.027344c-5.320312-36.027344-6.464843-72.632812-3.378906-108.832031-3.144531 36.25-2 72.847656 3.335938 108.773437zm0 0"/><path d="m109.257812 462.363281c-7.984374-11.179687-17.011718-24.328125-23.097656-38.910156-5.367187-12.855469-10.535156-32.269531-4.65625-51.757813 3.207032-10.652343 9.738282-18.175781 17.464844-20.132812-9.761719-4.242188-18.851562-8.714844-22.664062-17.476562-2.921876-6.722657-1.957032-15.394532 2.578124-23.195313 4.082032-7.03125 10.199219-12.535156 16.113282-17.859375l.421875-.910156.882812-.710938c2.484375-1.878906 4.707031-3.703125 6.789063-5.574218 1.996094-1.808594 3.894531-3.726563 5.796875-5.859376l7.589843-8.511718-.609374 11.390625c-3.140626 58.699219-2.921876 118.230469.636718 176.941406l.84375 13.898437zm0 0"/></g><path d="m94.175781 143.679688c-.277343 0-.550781-.019532-.820312-.054688-6.695313-.9375-8.960938-10.191406-10.460938-16.316406-.214843-.90625-.40625-1.683594-.589843-2.375-2.546876-9.527344-4.128907-18.234375-4.828126-26.609375-1.46875-17.386719 1.0625-33.664063 7.320313-47.074219 8.945313-19.175781 26.3125-34.453125 47.644531-41.914062 9.992188-3.5 20.761719-5.273438 32.011719-5.273438 10.742187 0 21.539063 1.625 32.089844 4.832031 8 2.433594 15.9375 5.777344 22.941406 8.730469 8.628906 3.625 17.484375 7.347656 26.613281 9.769531 6.738282 1.792969 13.234375 2.703125 19.304688 2.703125 6.582031 0 12.734375-1.058594 18.289062-3.148437l12.335938-4.640625-7.675782 10.714844c-9.765624 13.632812-23.613281 24.195312-38.984374 29.742187 8.363281-.257813 16.75-1.589844 24.945312-3.902344l3.636719 6.933594c-19.828125 16.378906-42.507813 27.632813-65.585938 32.535156-8.976562 1.90625-18.148437 2.871094-27.261719 2.871094-23.449218 0-45.636718-6.230469-64.160156-18.015625.902344 8.449219.144532 17.378906-2.242187 25.855469-2.054688 7.339843-5.269531 14.304687-9.558594 20.695312l-.707031 1.058594c-5.132813 7.726563-9.527344 12.882813-14.257813 12.882813zm0 0" fill="#c67045"/><path d="m239.679688 141.523438c-12.878907-9.542969-21.445313-24.746094-22.921876-40.671876l-.308593-3.347656 3.242187-.882812c8.675782-2.363282 17.324219-5.632813 25.707032-9.71875l4.40625-2.144532 1.222656 4.746094c4.339844 16.917969 2.429687 34.882813-5.386719 50.589844l-2.125 4.269531zm0 0" fill="#c67045"/><path d="m169.375 258.285156c-3.867188 0-7.765625-.339844-11.597656-1.003906-15.964844-2.773438-31.414063-11.3125-43.507813-24.046875-12.011719-12.648437-20.320312-29.078125-23.394531-46.257813l-.125-.007812c-4.054688.695312-8.246094 1.414062-12.46875 1.414062-1.269531 0-2.496094-.066406-3.648438-.199218-6.035156-.675782-11.117187-3.390625-13.929687-7.445313-5.089844-7.378906-2.085937-17.5 2.855469-23.78125 6.300781-8.003906 16.527344-12.972656 26.691406-12.972656.242188 0 .484375 0 .722656.007813l.78125-.351563.878906-.019531h.386719l.355469.0625c.253906.039062.519531.054687.816406.054687 5.714844 0 11.085938-8.074219 14.292969-12.902343l.699219-1.046876c4.292968-6.378906 7.511718-13.351562 9.574218-20.726562 1.734376-6.152344 2.613282-12.394531 2.613282-18.550781v-6.730469l5.910156 3.214844c17.15625 9.328125 37.148438 14.257812 57.824219 14.257812 8.992187 0 18.039062-.9375 26.886719-2.789062l4.300781-.898438.492187 4.363282c1.859375 16.441406 11.132813 31.773437 24.804688 41.015624l1.316406.890626.34375 1.535156c2.65625-1.507813 6.015625-2.316406 9.769531-2.316406 2.527344 0 5.171875.382812 7.644531 1.105468 5.378907 1.570313 9.386719 4.492188 11.285157 8.230469 4.21875 8.289063 1.929687 19.886719-5.324219 26.972656-5.519531 5.382813-13.664062 8.472657-22.351562 8.472657-1.625 0-3.269532-.109376-4.898438-.316407-5.175781 20.136719-13.621094 45.0625-33.476562 59.355469-10.214844 7.355469-23.183594 11.410156-36.523438 11.410156zm0 0" fill="#ffdac4"/><path d="m166.871094 301.667969c-1.796875-.03125-3.589844-.964844-6.183594-3.21875l-40.832031-35.191407.964843-2.609374c1.421876-3.824219 2.335938-7.71875 2.722657-11.566407l.652343-6.519531 5.5 3.558594c8.761719 5.671875 18.46875 9.550781 28.070313 11.21875 3.832031.664062 7.738281 1 11.605469 1 13.332031 0 26.289062-4.03125 36.5-11.359375.15625-.121094.382812-.285157.6875-.441407l4.148437-2.125 1.46875 4.425782c.878907 2.644531 1.957031 5.320312 3.210938 7.957031l1.734375 3.660156s-3.714844 1.703125-3.714844 1.703125l-40.269531 36.203125c-1.816407 1.644531-3.792969 3.261719-6.105469 3.304688l-.078125.003906zm0 0" fill="#ffdac4"/><path d="m337.433594 479.5625c-.242188-19.554688-1.085938-39.359375-2.507813-58.863281-1.59375-21.871094-4.089843-44.898438-15.28125-64.898438-11.847656-21.175781-31.703125-35.777343-50.90625-49.898437-1.8125-1.335938-3.621093-2.664063-5.417969-3.996094-20.460937-15.167969-40.398437-32.382812-47.652343-55.4375-.199219-.621094-.542969-1.152344-.972657-1.59375 15.402344-14.433594 22.941407-35.1875 27.714844-53.015625 10.390625.464844 20.308594-3 27.054688-9.589844 8.609375-8.402343 11.175781-21.742187 6.109375-31.71875-2.410157-4.742187-7.300781-8.398437-13.769531-10.292969-3.726563-1.089843-7.601563-1.457031-11.214844-1.148437 7.0625-15.789063 8.6875-33.847656 4.367187-50.664063-.15625-.597656-.445312-1.121093-.816406-1.566406 15.285156-8.390625 29.625-19.445312 42.167969-32.675781 1.351562-1.421875 1.480468-3.605469.3125-5.179687-1.171875-1.574219-3.300782-2.078126-5.050782-1.191407-6.210937 3.132813-12.777343 5.628907-19.527343 7.449219 11.992187-8.722656 21.695312-20.492188 27.863281-34.152344.785156-1.738281.242188-3.792968-1.300781-4.917968s-3.660157-1.015626-5.078125.269531c-10.34375 9.347656-27.679688 11.960937-46.382813 6.992187-8.875-2.363281-17.625-6.039062-26.089843-9.597656-7.519532-3.164062-15.300782-6.433594-23.328126-8.871094-22.511718-6.839844-46.171874-6.660156-66.625.492188-22.367187 7.828125-40.585937 23.875-49.988281 44.035156-6.550781 14.046875-9.207031 31.039062-7.6875 49.136719.726563 8.605469 2.347657 17.546875 4.957031 27.324219.179688.667968.363282 1.421874.558594 2.230468.871094 3.582032 2.054688 8.429688 4.363282 12.40625-8.945313 1.738282-17.308594 6.664063-22.9375 13.816406-5.839844 7.421876-9.273438 19.535157-3.003907 28.597657 3.46875 5.015625 9.597657 8.359375 16.816407 9.179687 4.605468.523438 9.203124.042969 13.488281-.625 3.703125 16.523438 12.015625 32.175782 23.660156 44.433594 2.628906 2.769531 5.417969 5.335938 8.324219 7.710938.503906 13.320312-6.480469 27.515624-19.289063 39.074218-9.664062 8.722656-21.488281 15.300782-32.925781 21.660156-2.636719 1.464844-5.269531 2.929688-7.882812 4.417969-13.789063 7.871094-29.203126 17.894531-38.976563 32.578125-10.625 15.957032-13.511719 35.132813-15.558594 53.410156-3.332031 29.78125-5.019531 60.074219-5.019531 90.042969 0 5.605469.25 11.035157 3.246094 15.785157 5.460937 8.664062 16.414062 9.882812 26.40625 9.929687l276.476562 1.355469c.492188 0 1 .003906 1.527344.003906 6.503906 0 15.472656-.382812 21.828125-6.039062 7.191406-6.398438 8.070313-16.472657 7.949219-26.398438zm-96.828125-185.421875c.234375.902344.761719 1.730469 1.582031 2.304687 8.71875 6.074219 14.007812 17.707032 13.804688 30.359376-.1875 11.429687-6.5 22.84375-16.085938 29.070312l-.261719.167969c-1.667969 1.078125-3.949219 2.554687-5.003906 5.304687-1.980469 5.179688 1.90625 9.480469 4.230469 12.054688 10.328125 11.417968 12.804687 30.5 6.308594 48.609375-5.195313 14.488281-14.710938 26.945312-24.628907 38.808593 1.980469-61.488281 2.785157-123.425781 2.390625-184.753906 5.210938 6.492188 11.230469 12.464844 17.664063 18.074219zm-74.195313 63.492187c-5.167968-7.3125-9.996094-14.679687-14.457031-22 1.285156-.90625 2.539063-1.855468 3.761719-2.847656 1.613281 1.21875 3.507812 2.15625 5.609375 2.722656 1.519531.414063 3.09375.617188 4.660156.617188 3.753906 0 7.484375-1.167969 10.492187-3.332031l3.777344 1.929687c-4.425781 7.730469-9.054687 15.402344-13.84375 22.910156zm-14.976562-42.128906c-.070313.179688-.144532.359375-.207032.539063-1.261718 3.535156-1.351562 7.113281-.300781 10.238281-3.972656 3.261719-8.324219 6.027344-12.96875 8.230469-1.824219.863281-2.382812.84375-2.539062.796875-.007813-.003906-.984375-.554688-1.195313-4.5625-.433594-8.230469-.65625-16.574219-.660156-24.832032 6.382812 2.347657 12.375 5.574219 17.871094 9.589844zm20.664062 10.519532c-2.351562 1.863281-5.667968 2.519531-8.667968 1.703124-2.160157-.582031-3.898438-1.882812-4.652344-3.480468-.695313-1.46875-.679688-3.472656.046875-5.511719.226562-.648437.527343-1.273437.914062-1.90625.835938-.945313 1.671875-1.898437 2.507813-2.855469 2.316406-1.882812 5.292968-2.824218 7.820312-2.449218 3.820313.5625 5.011719 3.847656 5.347656 6.582031l.011719.101562c.324219 2.878907-.984375 5.945313-3.328125 7.816407zm9.714844.441406c1.378906-2.828125 1.976562-6.019532 1.625-9.195313l-.027344-.222656c-.058594-.472656-.132812-.9375-.21875-1.390625 4.9375-4.699219 10.414063-8.75 16.339844-12.082031 1.839844 9.683593 1.933594 19.769531.242188 29.457031-.222657 1.277344-.472657 1.886719-.621094 2.164062-.351563-.089843-.925782-.339843-1.722656-.746093zm19.761719-32.84375c-.347657.066406-.683594.164062-1.007813.320312-7.632812 3.683594-14.671875 8.410156-20.964844 14.050782-1.753906-1.992188-4.035156-3.398438-6.726562-4.101563-.019531-.027344-.039062-.050781-.0625-.074219 1.238281-.808594 2.253906-1.722656 3.035156-2.425781l36.800782-33.089844c-3.472657 8.507813-7.183594 16.988281-11.074219 25.320313zm-45.050781 14.648437c-.199219.179688-.398438.355469-.59375.542969-6.75-4.894531-14.164063-8.714844-22.089844-11.339844-.78125-.261718-1.515625-.402344-2.214844-.449218-3.953125-8.898438-7.515625-18.011719-10.625-27.171876.03125-.054687.0625-.109374.09375-.164062l36.953125 31.851562c.691406.597657 1.5625 1.34375 2.59375 2.042969zm-36.929688-19.007812c1.867188 4.644531 3.84375 9.253906 5.914062 13.800781-.003906.125-.003906.246094-.003906.34375-.042968 9.21875.179688 18.558594.667969 27.765625.34375 6.539063 2.644531 10.519531 6.839844 11.832031.867187.273438 1.714843.386719 2.542969.386719 2.136718 0 4.121093-.769531 5.855468-1.59375 1.25-.59375 2.472656-1.226563 3.683594-1.890625 5.070312 8.3125 10.632812 16.683594 16.578125 24.960938-.117187.339843-.207031.691406-.230469 1.066406-2.832031 45.535156-3.054687 91.722656-.660156 137.285156l-36.96875-.179688c-6.320312-70.839843-7.734375-142.675781-4.21875-213.777343zm49.824219 78.390625c.203125-.199219.386719-.417969.542969-.65625 6.082031-9.304688 11.9375-18.914063 17.476562-28.601563l6.324219 3.234375c1.160156.59375 3.253906 1.660156 5.652343 1.660156.828126 0 1.6875-.125 2.5625-.441406 4.554688-1.652344 5.445313-6.753906 5.738282-8.433594 1.9375-11.101562 1.738281-22.679687-.542969-33.738281 2.664063-5.605469 5.25-11.285156 7.746094-17.007812.347656 72.539062-.949219 145.871093-3.914063 218.230469-.023437.550781.066406 1.082031.25 1.570312l-42.414062-.207031c0-.0625.011718-.121094.007812-.179688-2.375-44.945312-2.179687-90.503906.570313-135.429687zm72.640625-229.339844c-12.007813-8.898438-19.941406-22.925781-21.320313-37.835938 8.960938-2.433593 17.8125-5.785156 26.417969-9.976562 4.082031 15.9375 2.210938 33.121094-5.097656 47.8125zm-153.636719-85.375c8.488281-18.199219 25.011719-32.714844 45.34375-39.828125 9.613281-3.367187 20.019531-5.050781 30.683594-5.050781 10.234375 0 20.703125 1.554687 30.933593 4.660156 7.628907 2.320312 15.210938 5.507812 22.546876 8.589844 8.714843 3.664062 17.726562 7.453125 27.140624 9.957031 17.699219 4.707031 30.890626 2.863281 40.035157-.574219-9.191407 12.828125-22.347657 22.996094-37.09375 28.308594-1.871094.675781-2.96875 2.613281-2.589844 4.5625.378906 1.953125 2.140625 3.332031 4.113281 3.261719 8.714844-.335938 17.433594-1.730469 25.871094-4.109375-19.222656 15.871094-41.34375 26.921875-63.875 31.703125-31.203125 6.628906-63.441406 1.300781-88.441406-14.605469-1.3125-.832031-2.984375-.839844-4.300782-.019531-1.320312.824219-2.046874 2.332031-1.871093 3.875.894531 7.894531.179687 16.296875-2.066407 24.289062-1.957031 6.964844-4.996093 13.542969-9.039062 19.550781l-.703125 1.0625c-2.101563 3.164063-7.691406 11.558594-11.230469 11.085938-3.996094-.550781-5.941406-8.554688-7.105468-13.339844-.210938-.871094-.410157-1.683594-.601563-2.40625-2.488281-9.3125-4.03125-17.792968-4.714844-25.917968-1.402343-16.699219 1.007813-32.277344 6.964844-45.054688zm28.75 177.542969c-11.484375-12.089844-19.425781-27.789063-22.355469-44.207031-.390625-2.183594-2.476562-3.640626-4.65625-3.261719-5.011718.863281-10.195312 1.757812-15.070312 1.203125-4.90625-.558594-8.949219-2.65625-11.09375-5.757813-3.769532-5.441406-1.492188-13.691406 2.707031-19.023437 5.699219-7.242188 14.957031-11.652344 24.179687-11.441406h.082032c.597656 0 1.160156-.140626 1.667968-.375.050782.007812.09375.019531.144532.027343.476562.066407.945312.097657 1.410156.097657 7.878906 0 13.9375-9.132813 17.640625-14.714844l.679687-1.019532c4.519532-6.722656 7.917969-14.078124 10.109376-21.867187 1.832031-6.53125 2.753906-13.105469 2.753906-19.632813 25.582031 13.914063 56.988281 18.246094 87.441406 11.878907 1.984375 17.574219 11.875 33.960937 26.535156 43.875.089844.394531.222656.785156.4375 1.152343 1.128906 1.921876 3.597656 2.566407 5.519532 1.4375 3.464843-2.035156 9.050781-2.371093 14.234374-.855468 4.25 1.246094 7.472657 3.503906 8.84375 6.207031 3.457032 6.800781 1.5 16.390625-4.550781 22.296875-5.761719 5.625-14.710937 8.257812-23.941406 7.050781-2.027344-.273437-3.921875 1.023438-4.429687 3-4.96875 19.460938-13.082032 43.535157-31.902344 57.085938-12.46875 8.976562-28.90625 12.511719-45.097656 9.699219-15.125-2.628907-29.789063-10.746094-41.289063-22.855469zm39.910156 30.800781c4.097657.710938 8.210938 1.0625 12.289063 1.0625 14.152344 0 27.867187-4.21875 38.902344-12.167969.035156-.023437.070312-.050781.105468-.078125.96875 2.890625 2.101563 5.695313 3.394532 8.410156-.355469.164063-.699219.363282-1.003907.640626l-40.3125 36.246093c-.9375.84375-2.511719 2.257813-3.503906 2.277344-.988281-.019531-2.664063-1.394531-3.644531-2.242187l-38.742188-33.390626c1.542969-4.152343 2.539063-8.359374 2.953125-12.554687 9.179688 5.941406 19.261719 10.003906 29.5625 11.796875zm-51.316406 27.523438c2.195313-1.980469 4.21875-4.042969 6.109375-6.160157-3.15625 58.921875-2.945312 118.375.636719 177.390625-8.585938-12.027344-16.980469-24.515625-22.660157-38.121094-5.113281-12.257812-10.054687-30.722656-4.523437-49.066406 2.800781-9.289062 8.265625-15.796875 14.625-17.410156 1.675781-.425781 2.890625-1.871094 3.027344-3.59375.132812-1.722656-.84375-3.339844-2.433594-4.019531-9.003906-3.855469-17.351563-7.929688-20.574219-15.339844-2.417968-5.546875-1.53125-12.871094 2.367188-19.585937 3.78125-6.503907 9.679687-11.8125 15.386718-16.945313.433594-.390625.757813-.851563.980469-1.351563 2.425781-1.828124 4.789063-3.746093 7.058594-5.796874zm-95.703125 207.605468c-1.847656-2.933594-2-6.9375-2-11.484375 0-29.667969 1.671875-59.660156 4.972656-89.148437 1.933594-17.289063 4.628906-35.378906 14.25-49.835938 8.820313-13.246094 22.640625-22.265625 36.265625-30.039062 2.582031-1.476563 5.191407-2.925782 7.800781-4.378906 1.222657-.675782 2.445313-1.359376 3.671876-2.046876-4.871094 8.765626-5.800782 18.519532-2.445313 26.226563 3.269531 7.523437 9.789063 12.261719 17.082031 15.980469-5.34375 4.0625-9.558594 10.5625-12.050781 18.835937-6.222656 20.632813-.824219 41.027344 4.800781 54.503907 7.023438 16.824218 17.707032 31.640624 28.035156 45.964843.707032.980469 1.769532 1.519531 2.882813 1.628907.699219 10.144531 1.492187 20.273437 2.386719 30.382812l-59.289063-.289062c.246094-.632813.355469-1.328126.246094-2.046876-5.292969-35.660156-6.429687-71.953124-3.375-107.875.191406-2.21875-1.457031-4.167968-3.675781-4.355468-2.214844-.1875-4.167969 1.457031-4.359375 3.675781-3.105469 36.539063-1.953125 73.460937 3.433593 109.742187.042969.289063.125.558594.222657.824219l-19.230469-.097656c-7.804688-.039063-16.238281-.800781-19.625-6.167969zm314.0625 3.53125c-4.210938 3.746094-10.886719 4.039063-17.957031 3.992188l-13.09375-.066406c1.992187-36.421876.863281-73.25-3.367188-109.46875-.257812-2.214844-2.265625-3.796876-4.472656-3.539063-2.214844.257813-3.796875 2.261719-3.539063 4.472656 4.195313 35.898438 5.304688 72.402344 3.304688 108.496094l-66.21875-.324219c.152344-.398437.261719-.824218.277344-1.273437.394531-9.636719.761718-19.289063 1.097656-28.957031.46875-.234376.902344-.550782 1.261719-.972657 11.597656-13.65625 24.742187-29.132812 31.351562-47.5625 7.484375-20.875 4.378907-43.144531-7.917969-56.742187-.738281-.816406-2.699218-2.988282-2.6875-3.753906.171876-.339844 1.226563-1.019532 1.855469-1.425782l.277344-.179687c11.953125-7.765625 19.523437-21.445313 19.753906-35.699219.09375-5.660156-.761719-11.171875-2.417969-16.253906.777344.570312 1.550782 1.140625 2.328126 1.714844 18.507812 13.613281 37.648437 27.6875 48.644531 47.335937 10.386719 18.558594 12.746093 40.582031 14.277343 61.550781 1.410157 19.34375 2.246094 38.984375 2.484376 58.375.09375 7.46875-.226563 15.8125-5.242188 20.28125zm0 0"/></svg>